<svg aria-roledescription="mindmap" role="graphics-document document" viewBox="5 5 975.3347778320312 500.7682189941406" style="max-width: 975.335px; background-color: white;" xmlns:xlink="http://www.w3.org/1999/xlink" xmlns="http://www.w3.org/2000/svg" width="100%" id="my-svg"><style>#my-svg{font-family:"trebuchet ms",verdana,arial,sans-serif;font-size:16px;fill:#000000;}#my-svg .error-icon{fill:#552222;}#my-svg .error-text{fill:#552222;stroke:#552222;}#my-svg .edge-thickness-normal{stroke-width:2px;}#my-svg .edge-thickness-thick{stroke-width:3.5px;}#my-svg .edge-pattern-solid{stroke-dasharray:0;}#my-svg .edge-pattern-dashed{stroke-dasharray:3;}#my-svg .edge-pattern-dotted{stroke-dasharray:2;}#my-svg .marker{fill:#000000;stroke:#000000;}#my-svg .marker.cross{stroke:#000000;}#my-svg svg{font-family:"trebuchet ms",verdana,arial,sans-serif;font-size:16px;}#my-svg .edge{stroke-width:3;}#my-svg .section--1 rect,#my-svg .section--1 path,#my-svg .section--1 circle,#my-svg .section--1 polygon,#my-svg .section--1 path{fill:hsl(78.1578947368, 58.4615384615%, 64.5098039216%);}#my-svg .section--1 text{fill:black;}#my-svg .node-icon--1{font-size:40px;color:black;}#my-svg .section-edge--1{stroke:hsl(78.1578947368, 58.4615384615%, 64.5098039216%);}#my-svg .edge-depth--1{stroke-width:17;}#my-svg .section--1 line{stroke:hsl(258.1578947368, 58.4615384615%, 64.5098039216%);stroke-width:3;}#my-svg .disabled,#my-svg .disabled circle,#my-svg .disabled text{fill:lightgray;}#my-svg .disabled text{fill:#efefef;}#my-svg .section-0 rect,#my-svg .section-0 path,#my-svg .section-0 circle,#my-svg .section-0 polygon,#my-svg .section-0 path{fill:hsl(98.961038961, 100%, 74.9019607843%);}#my-svg .section-0 text{fill:black;}#my-svg .node-icon-0{font-size:40px;color:black;}#my-svg .section-edge-0{stroke:hsl(98.961038961, 100%, 74.9019607843%);}#my-svg .edge-depth-0{stroke-width:14;}#my-svg .section-0 line{stroke:hsl(278.961038961, 100%, 74.9019607843%);stroke-width:3;}#my-svg .disabled,#my-svg .disabled circle,#my-svg .disabled text{fill:lightgray;}#my-svg .disabled text{fill:#efefef;}#my-svg .section-1 rect,#my-svg .section-1 path,#my-svg .section-1 circle,#my-svg .section-1 polygon,#my-svg .section-1 path{fill:hsl(78.1578947368, 58.4615384615%, 74.5098039216%);}#my-svg .section-1 text{fill:black;}#my-svg .node-icon-1{font-size:40px;color:black;}#my-svg .section-edge-1{stroke:hsl(78.1578947368, 58.4615384615%, 74.5098039216%);}#my-svg .edge-depth-1{stroke-width:11;}#my-svg .section-1 line{stroke:hsl(258.1578947368, 58.4615384615%, 74.5098039216%);stroke-width:3;}#my-svg .disabled,#my-svg .disabled circle,#my-svg .disabled text{fill:lightgray;}#my-svg .disabled text{fill:#efefef;}#my-svg .section-2 rect,#my-svg .section-2 path,#my-svg .section-2 circle,#my-svg .section-2 polygon,#my-svg .section-2 path{fill:hsl(108.1578947368, 58.4615384615%, 64.5098039216%);}#my-svg .section-2 text{fill:black;}#my-svg .node-icon-2{font-size:40px;color:black;}#my-svg .section-edge-2{stroke:hsl(108.1578947368, 58.4615384615%, 64.5098039216%);}#my-svg .edge-depth-2{stroke-width:8;}#my-svg .section-2 line{stroke:hsl(288.1578947368, 58.4615384615%, 64.5098039216%);stroke-width:3;}#my-svg .disabled,#my-svg .disabled circle,#my-svg .disabled text{fill:lightgray;}#my-svg .disabled text{fill:#efefef;}#my-svg .section-3 rect,#my-svg .section-3 path,#my-svg .section-3 circle,#my-svg .section-3 polygon,#my-svg .section-3 path{fill:hsl(138.1578947368, 58.4615384615%, 64.5098039216%);}#my-svg .section-3 text{fill:black;}#my-svg .node-icon-3{font-size:40px;color:black;}#my-svg .section-edge-3{stroke:hsl(138.1578947368, 58.4615384615%, 64.5098039216%);}#my-svg .edge-depth-3{stroke-width:5;}#my-svg .section-3 line{stroke:hsl(318.1578947368, 58.4615384615%, 64.5098039216%);stroke-width:3;}#my-svg .disabled,#my-svg .disabled circle,#my-svg .disabled text{fill:lightgray;}#my-svg .disabled text{fill:#efefef;}#my-svg .section-4 rect,#my-svg .section-4 path,#my-svg .section-4 circle,#my-svg .section-4 polygon,#my-svg .section-4 path{fill:hsl(168.1578947368, 58.4615384615%, 64.5098039216%);}#my-svg .section-4 text{fill:black;}#my-svg .node-icon-4{font-size:40px;color:black;}#my-svg .section-edge-4{stroke:hsl(168.1578947368, 58.4615384615%, 64.5098039216%);}#my-svg .edge-depth-4{stroke-width:2;}#my-svg .section-4 line{stroke:hsl(348.1578947368, 58.4615384615%, 64.5098039216%);stroke-width:3;}#my-svg .disabled,#my-svg .disabled circle,#my-svg .disabled text{fill:lightgray;}#my-svg .disabled text{fill:#efefef;}#my-svg .section-5 rect,#my-svg .section-5 path,#my-svg .section-5 circle,#my-svg .section-5 polygon,#my-svg .section-5 path{fill:hsl(198.1578947368, 58.4615384615%, 64.5098039216%);}#my-svg .section-5 text{fill:black;}#my-svg .node-icon-5{font-size:40px;color:black;}#my-svg .section-edge-5{stroke:hsl(198.1578947368, 58.4615384615%, 64.5098039216%);}#my-svg .edge-depth-5{stroke-width:-1;}#my-svg .section-5 line{stroke:hsl(18.1578947368, 58.4615384615%, 64.5098039216%);stroke-width:3;}#my-svg .disabled,#my-svg .disabled circle,#my-svg .disabled text{fill:lightgray;}#my-svg .disabled text{fill:#efefef;}#my-svg .section-6 rect,#my-svg .section-6 path,#my-svg .section-6 circle,#my-svg .section-6 polygon,#my-svg .section-6 path{fill:hsl(228.1578947368, 58.4615384615%, 64.5098039216%);}#my-svg .section-6 text{fill:black;}#my-svg .node-icon-6{font-size:40px;color:black;}#my-svg .section-edge-6{stroke:hsl(228.1578947368, 58.4615384615%, 64.5098039216%);}#my-svg .edge-depth-6{stroke-width:-4;}#my-svg .section-6 line{stroke:hsl(48.1578947368, 58.4615384615%, 64.5098039216%);stroke-width:3;}#my-svg .disabled,#my-svg .disabled circle,#my-svg .disabled text{fill:lightgray;}#my-svg .disabled text{fill:#efefef;}#my-svg .section-7 rect,#my-svg .section-7 path,#my-svg .section-7 circle,#my-svg .section-7 polygon,#my-svg .section-7 path{fill:hsl(288.1578947368, 58.4615384615%, 64.5098039216%);}#my-svg .section-7 text{fill:black;}#my-svg .node-icon-7{font-size:40px;color:black;}#my-svg .section-edge-7{stroke:hsl(288.1578947368, 58.4615384615%, 64.5098039216%);}#my-svg .edge-depth-7{stroke-width:-7;}#my-svg .section-7 line{stroke:hsl(108.1578947368, 58.4615384615%, 64.5098039216%);stroke-width:3;}#my-svg .disabled,#my-svg .disabled circle,#my-svg .disabled text{fill:lightgray;}#my-svg .disabled text{fill:#efefef;}#my-svg .section-8 rect,#my-svg .section-8 path,#my-svg .section-8 circle,#my-svg .section-8 polygon,#my-svg .section-8 path{fill:hsl(348.1578947368, 58.4615384615%, 64.5098039216%);}#my-svg .section-8 text{fill:black;}#my-svg .node-icon-8{font-size:40px;color:black;}#my-svg .section-edge-8{stroke:hsl(348.1578947368, 58.4615384615%, 64.5098039216%);}#my-svg .edge-depth-8{stroke-width:-10;}#my-svg .section-8 line{stroke:hsl(168.1578947368, 58.4615384615%, 64.5098039216%);stroke-width:3;}#my-svg .disabled,#my-svg .disabled circle,#my-svg .disabled text{fill:lightgray;}#my-svg .disabled text{fill:#efefef;}#my-svg .section-9 rect,#my-svg .section-9 path,#my-svg .section-9 circle,#my-svg .section-9 polygon,#my-svg .section-9 path{fill:hsl(18.1578947368, 58.4615384615%, 64.5098039216%);}#my-svg .section-9 text{fill:black;}#my-svg .node-icon-9{font-size:40px;color:black;}#my-svg .section-edge-9{stroke:hsl(18.1578947368, 58.4615384615%, 64.5098039216%);}#my-svg .edge-depth-9{stroke-width:-13;}#my-svg .section-9 line{stroke:hsl(198.1578947368, 58.4615384615%, 64.5098039216%);stroke-width:3;}#my-svg .disabled,#my-svg .disabled circle,#my-svg .disabled text{fill:lightgray;}#my-svg .disabled text{fill:#efefef;}#my-svg .section-10 rect,#my-svg .section-10 path,#my-svg .section-10 circle,#my-svg .section-10 polygon,#my-svg .section-10 path{fill:hsl(48.1578947368, 58.4615384615%, 64.5098039216%);}#my-svg .section-10 text{fill:black;}#my-svg .node-icon-10{font-size:40px;color:black;}#my-svg .section-edge-10{stroke:hsl(48.1578947368, 58.4615384615%, 64.5098039216%);}#my-svg .edge-depth-10{stroke-width:-16;}#my-svg .section-10 line{stroke:hsl(228.1578947368, 58.4615384615%, 64.5098039216%);stroke-width:3;}#my-svg .disabled,#my-svg .disabled circle,#my-svg .disabled text{fill:lightgray;}#my-svg .disabled text{fill:#efefef;}#my-svg .section-root rect,#my-svg .section-root path,#my-svg .section-root circle,#my-svg .section-root polygon{fill:hsl(78.1578947368, 58.4615384615%, 49.5098039216%);}#my-svg .section-root text{fill:#ffffff;}#my-svg .icon-container{height:100%;display:flex;justify-content:center;align-items:center;}#my-svg .edge{fill:none;}#my-svg .mindmap-node-label{dy:1em;alignment-baseline:middle;text-anchor:middle;dominant-baseline:middle;text-align:center;}#my-svg :root{--mermaid-font-family:"trebuchet ms",verdana,arial,sans-serif;}</style><g/><g/><g class="mindmap-edges"><path class="edge section-edge-0 edge-depth-1" d="M 355.663583223272,327.8422033301691 L 424.6836178406632,348.98615517308394 L493.7036524580544,370.13010701599876"/><path class="edge section-edge-0 edge-depth-1" d="M 326.67104751198383,326.6680230853449 L 238.43487526197288,346.05805301243015 L150.19870301196192,365.4480829395154"/><path class="edge section-edge-0 edge-depth-1" d="M 332.8138369969819,335.8025176649729 L 309.1680819085288,370.1385264337845 L285.5223268200757,404.47453520259603"/><path class="edge section-edge-0 edge-depth-0" d="M 428.97788686795616,245.1212985174713 L 390.7422296660808,279.2875929585604 L352.50657246420553,313.45388739964955"/><path class="edge section-edge-1 edge-depth-1" d="M 451.05727865611834,125.95970067331095 L 499.83297537658996,115.13066923542485 L548.6086720970616,104.30163779753875"/><path class="edge section-edge-1 edge-depth-1" d="M 443.45803515163243,115.96770936904068 L 461.7624704270339,81.55539652263488 L480.0669057024354,47.14308367622907"/><path class="edge section-edge-1 edge-depth-1" d="M 422.4088489696746,134.5829736524075 L 384.17161673945657,149.25041388524446 L345.93438450923855,163.9178541180814"/><path class="edge section-edge-1 edge-depth-1" d="M 423.79403567017897,121.10273364760147 L 378.6135145092986,92.07483104140985 L333.4329933484183,63.04692843521822"/><path class="edge section-edge-1 edge-depth-0" d="M 439.632352558386,220.13600521614603 L 438.2884088581401,182.16870488197367 L436.9444651578942,144.20140454780136"/><path class="edge section-edge-2 edge-depth-1" d="M 661.9225252414408,186.0492945537846 L 685.7099723404037,216.03523376154016 L709.4974194393667,246.02117296929575"/><path class="edge section-edge-2 edge-depth-1" d="M 667.3833876484301,176.8394926618034 L 737.8780692903943,188.95943091117223 L808.3727509323584,201.07936916054106"/><path class="edge section-edge-2 edge-depth-1" d="M 659.537945127888,160.99867350547456 L 677.2742714480185,126.99888912811915 L695.010597768149,92.99910475076373"/><path class="edge section-edge-2 edge-depth-1" d="M 667.191975018394,170.82188706617737 L 751.9956220710675,150.620206858971 L836.7992691237409,130.4185266517646"/><path class="edge section-edge-2 edge-depth-0" d="M 454.5834645920385,230.9974933957801 L 546.3816319156874,204.71224733249824 L638.1797992393363,178.4270012692163"/><path class="edge section-edge-3 edge-depth-2" d="M 809.0106010201604,333.4890807991644 L 864.4345482136399,317.8637645602264 L919.8584954071194,302.2384483212884"/><path class="edge section-edge-3 edge-depth-2" d="M 806.6293164379157,346.48419845976287 L 842.1110050842303,372.7510256526675 L877.592693730545,399.0178528455722"/><path class="edge section-edge-3 edge-depth-1" d="M 605.6036595344755,311.02632956805724 L 692.6613709098007,323.24996825646906 L779.7190822851259,335.4736069448809"/><path class="edge section-edge-3 edge-depth-2" d="M 688.5948611913319,407.6695990849159 L 711.734744263991,436.425802826711 L734.8746273366502,465.1820065685061"/><path class="edge section-edge-3 edge-depth-2" d="M 667.667225626888,405.58553211409867 L 635.262613473638,432.5865407492513 L602.858001320388,459.5875493844039"/><path class="edge section-edge-3 edge-depth-1" d="M 601.4401861679547,319.46237222942176 L 634.970204112911,352.4620112468058 L668.5002220578673,385.4616502641898"/><path class="edge section-edge-3 edge-depth-0" d="M 453.6318914463258,241.72877223090111 L 515.456174421461,272.0336390596746 L577.2804573965961,302.33850588844814"/><path class="edge section-edge-4 edge-depth-1" d="M 199.5326134283974,205.1191762641773 L 133.05252841513828,206.94946493582975 L66.57244340187916,208.7797536074822"/><path class="edge section-edge-4 edge-depth-1" d="M 215.26688955865757,219.68809957872338 L 216.8144795906403,251.02176491693365 L218.36206962262304,282.3554302551439"/><path class="edge section-edge-4 edge-depth-1" d="M 214.13502466239544,189.71148252546885 L 213.2659178399557,156.4583218991011 L212.39681101751597,123.20516127273335"/><path class="edge section-edge-4 edge-depth-1" d="M 201.45390938046916,197.3513579311492 L 150.3151784425545,168.58023230225677 L99.17644750463985,139.80910667336428"/><path class="edge section-edge-4 edge-depth-1" d="M 202.01196745464176,212.97531996022528 L 158.96140502571114,241.4199309572224 L115.91084259678053,269.86454195421953"/><path class="edge section-edge-4 edge-depth-0" d="M 425.29747379519824,233.12244883619542 L 327.34495652685354,219.9164893312634 L229.39243925850874,206.7105298263313"/></g><g class="mindmap-nodes"><g transform="translate(360.5223562234304, 216.22661671867763)" class="mindmap-node section--1 section-root"><g><path d="M0 0 a23.8921875,23.8921875 0 0,1 39.8203125,-15.928125000000001&#10;      a55.748437499999994,55.748437499999994 1 0,1 63.712500000000006,-15.928125000000001&#10;      a39.8203125,39.8203125 1 0,1 55.748437499999994,31.856250000000003&#10;&#10;      a23.8921875,23.8921875 1 0,1 23.8921875,13.229999999999999&#10;      a31.856250000000003,31.856250000000003 1 0,1 -23.8921875,24.57&#10;&#10;      a39.8203125,23.8921875 1 0,1 -39.8203125,23.8921875&#10;      a55.748437499999994,55.748437499999994 1 0,1 -79.640625,0&#10;      a23.8921875,23.8921875 1 0,1 -39.8203125,-23.8921875&#10;&#10;      a23.8921875,23.8921875 1 0,1 -15.928125000000001,-13.229999999999999&#10;      a31.856250000000003,31.856250000000003 1 0,1 15.928125000000001,-24.57&#10;&#10;    H0 V0 Z" class="node-bkg node-cloud" id="node-0"/></g><g transform="translate(79.640625, 5)" text-anchor="middle" dominant-baseline="middle" alignment-baseline="middle" dy="1em"><g><rect class="background"/><text y="-10.1"><tspan dy="1.1em" y="-0.1em" x="0" class="text-outer-tspan"><tspan font-weight="normal" class="text-inner-tspan" font-style="normal">Financial</tspan><tspan font-weight="normal" class="text-inner-tspan" font-style="normal"> Literacy</tspan></tspan></text></g></g></g><g transform="translate(283.5480406087313, 299.54856919844326)" class="mindmap-node section-0"><g><polygon transform="translate(-1.9500000000000028, 47.8)" points="11.95,0 107.496875,0 119.446875,-23.9 107.496875,-47.8 11.95,-47.8 0,-23.9"/></g><g transform="translate(57.7734375, 10)" text-anchor="middle" dominant-baseline="middle" alignment-baseline="middle" dy="1em"><g><rect class="background"/><text y="-10.1"><tspan dy="1.1em" y="-0.1em" x="0" class="text-outer-tspan"><tspan font-weight="normal" class="text-inner-tspan" font-style="normal">Lifestyles</tspan></tspan></text></g></g></g><g transform="translate(404.7020075725951, 355.6237411477247)" class="mindmap-node section-0"><g><path d="M0 32.8 v-27.799999999999997 q0,-5 5,-5 h196.6875 q5,0 5,5 v32.8 H0 Z" class="node-bkg node-no-border" id="node-2"/><line y2="37.8" x2="206.6875" y1="37.8" x1="0" class="node-line-0"/></g><g transform="translate(103.34375, 5)" text-anchor="middle" dominant-baseline="middle" alignment-baseline="middle" dy="1em"><g><rect class="background"/><text y="-10.1"><tspan dy="1.1em" y="-0.1em" x="0" class="text-outer-tspan"><tspan font-weight="normal" class="text-inner-tspan" font-style="normal">Live</tspan><tspan font-weight="normal" class="text-inner-tspan" font-style="normal"> above</tspan><tspan font-weight="normal" class="text-inner-tspan" font-style="normal"> your</tspan><tspan font-weight="normal" class="text-inner-tspan" font-style="normal"> means</tspan></tspan></text></g></g></g><g transform="translate(48.696709915214456, 349.7675368264171)" class="mindmap-node section-0"><g><path d="M0 32.8 v-27.799999999999997 q0,-5 5,-5 h163.703125 q5,0 5,5 v32.8 H0 Z" class="node-bkg node-no-border" id="node-3"/><line y2="37.8" x2="173.703125" y1="37.8" x1="0" class="node-line-0"/></g><g transform="translate(86.8515625, 5)" text-anchor="middle" dominant-baseline="middle" alignment-baseline="middle" dy="1em"><g><rect class="background"/><text y="-10.1"><tspan dy="1.1em" y="-0.1em" x="0" class="text-outer-tspan"><tspan font-weight="normal" class="text-inner-tspan" font-style="normal">Live</tspan><tspan font-weight="normal" class="text-inner-tspan" font-style="normal"> at</tspan><tspan font-weight="normal" class="text-inner-tspan" font-style="normal"> your</tspan><tspan font-weight="normal" class="text-inner-tspan" font-style="normal"> means</tspan></tspan></text></g></g></g><g transform="translate(174.54593570832628, 397.92848366912574)" class="mindmap-node section-0"><g><path d="M0 32.8 v-27.799999999999997 q0,-5 5,-5 h194.9375 q5,0 5,5 v32.8 H0 Z" class="node-bkg node-no-border" id="node-4"/><line y2="37.8" x2="204.9375" y1="37.8" x1="0" class="node-line-0"/></g><g transform="translate(102.46875, 5)" text-anchor="middle" dominant-baseline="middle" alignment-baseline="middle" dy="1em"><g><rect class="background"/><text y="-10.1"><tspan dy="1.1em" y="-0.1em" x="0" class="text-outer-tspan"><tspan font-weight="normal" class="text-inner-tspan" font-style="normal">Live</tspan><tspan font-weight="normal" class="text-inner-tspan" font-style="normal"> below</tspan><tspan font-weight="normal" class="text-inner-tspan" font-style="normal"> your</tspan><tspan font-weight="normal" class="text-inner-tspan" font-style="normal"> means</tspan></tspan></text></g></g></g><g transform="translate(395.6638364928498, 105.31079304526975)" class="mindmap-node section-1"><g><polygon transform="translate(-1.9500000000000028, 47.8)" points="11.95,0 73.45,0 85.4,-23.9 73.45,-47.8 11.95,-47.8 0,-23.9"/></g><g transform="translate(40.75, 10)" text-anchor="middle" dominant-baseline="middle" alignment-baseline="middle" dy="1em"><g><rect class="background"/><text y="-10.1"><tspan dy="1.1em" y="-0.1em" x="0" class="text-outer-tspan"><tspan font-weight="normal" class="text-inner-tspan" font-style="normal">Risks</tspan></tspan></text></g></g></g><g transform="translate(520.5568017603301, 82.15054542557993)" class="mindmap-node section-1"><g><path d="M0 32.8 v-27.799999999999997 q0,-5 5,-5 h75.390625 q5,0 5,5 v32.8 H0 Z" class="node-bkg node-no-border" id="node-6"/><line y2="37.8" x2="85.390625" y1="37.8" x1="0" class="node-line-1"/></g><g transform="translate(42.6953125, 5)" text-anchor="middle" dominant-baseline="middle" alignment-baseline="middle" dy="1em"><g><rect class="background"/><text y="-10.1"><tspan dy="1.1em" y="-0.1em" x="0" class="text-outer-tspan"><tspan font-weight="normal" class="text-inner-tspan" font-style="normal">Inflation</tspan></tspan></text></g></g></g><g transform="translate(388.15016686121805, 15)" class="mindmap-node section-1"><g><path d="M0 32.8 v-27.799999999999997 q0,-5 5,-5 h187.921875 q5,0 5,5 v32.8 H0 Z" class="node-bkg node-no-border" id="node-7"/><line y2="37.8" x2="197.921875" y1="37.8" x1="0" class="node-line-1"/></g><g transform="translate(98.9609375, 5)" text-anchor="middle" dominant-baseline="middle" alignment-baseline="middle" dy="1em"><g><rect class="background"/><text y="-10.1"><tspan dy="1.1em" y="-0.1em" x="0" class="text-outer-tspan"><tspan font-weight="normal" class="text-inner-tspan" font-style="normal">Market</tspan><tspan font-weight="normal" class="text-inner-tspan" font-style="normal"> Risk</tspan><tspan font-weight="normal" class="text-inner-tspan" font-style="normal"> |</tspan><tspan font-weight="normal" class="text-inner-tspan" font-style="normal"> Volatility</tspan></tspan></text></g></g></g><g transform="translate(308.22627198606335, 150.39003472521915)" class="mindmap-node section-1"><g><path d="M0 32.8 v-27.799999999999997 q0,-5 5,-5 h37.40625 q5,0 5,5 v32.8 H0 Z" class="node-bkg node-no-border" id="node-8"/><line y2="37.8" x2="47.40625" y1="37.8" x1="0" class="node-line-1"/></g><g transform="translate(23.703125, 5)" text-anchor="middle" dominant-baseline="middle" alignment-baseline="middle" dy="1em"><g><rect class="background"/><text y="-10.1"><tspan dy="1.1em" y="-0.1em" x="0" class="text-outer-tspan"><tspan font-weight="normal" class="text-inner-tspan" font-style="normal">Tax</tspan></tspan></text></g></g></g><g transform="translate(284.53975502574747, 36.038869037549944)" class="mindmap-node section-1"><g><path d="M0 32.8 v-27.799999999999997 q0,-5 5,-5 h62.546875 q5,0 5,5 v32.8 H0 Z" class="node-bkg node-no-border" id="node-9"/><line y2="37.8" x2="72.546875" y1="37.8" x1="0" class="node-line-1"/></g><g transform="translate(36.2734375, 5)" text-anchor="middle" dominant-baseline="middle" alignment-baseline="middle" dy="1em"><g><rect class="background"/><text y="-10.1"><tspan dy="1.1em" y="-0.1em" x="0" class="text-outer-tspan"><tspan font-weight="normal" class="text-inner-tspan" font-style="normal">Health</tspan></tspan></text></g></g></g><g transform="translate(578.0768451079445, 150.39787794631877)" class="mindmap-node section-2"><g><polygon transform="translate(-1.9500000000000028, 47.8)" points="11.95,0 140.99687500000002,0 152.946875,-23.9 140.99687500000002,-47.8 11.95,-47.8 0,-23.9"/></g><g transform="translate(74.5234375, 10)" text-anchor="middle" dominant-baseline="middle" alignment-baseline="middle" dy="1em"><g><rect class="background"/><text y="-10.1"><tspan dy="1.1em" y="-0.1em" x="0" class="text-outer-tspan"><tspan font-weight="normal" class="text-inner-tspan" font-style="normal">Income</tspan><tspan font-weight="normal" class="text-inner-tspan" font-style="normal"> Types</tspan></tspan></text></g></g></g><g transform="translate(684.069662072863, 238.87258957676156)" class="mindmap-node section-2"><g><path d="M0 32.8 v-27.799999999999997 q0,-5 5,-5 h59.5 q5,0 5,5 v32.8 H0 Z" class="node-bkg node-no-border" id="node-11"/><line y2="37.8" x2="69.5" y1="37.8" x1="0" class="node-line-2"/></g><g transform="translate(34.75, 5)" text-anchor="middle" dominant-baseline="middle" alignment-baseline="middle" dy="1em"><g><rect class="background"/><text y="-10.1"><tspan dy="1.1em" y="-0.1em" x="0" class="text-outer-tspan"><tspan font-weight="normal" class="text-inner-tspan" font-style="normal">Active</tspan></tspan></text></g></g></g><g transform="translate(783.569918472844, 184.72098387602568)" class="mindmap-node section-2"><g><path d="M0 32.8 v-27.799999999999997 q0,-5 5,-5 h69.171875 q5,0 5,5 v32.8 H0 Z" class="node-bkg node-no-border" id="node-12"/><line y2="37.8" x2="79.171875" y1="37.8" x1="0" class="node-line-2"/></g><g transform="translate(39.5859375, 5)" text-anchor="middle" dominant-baseline="middle" alignment-baseline="middle" dy="1em"><g><rect class="background"/><text y="-10.1"><tspan dy="1.1em" y="-0.1em" x="0" class="text-outer-tspan"><tspan font-weight="normal" class="text-inner-tspan" font-style="normal">Passive</tspan></tspan></text></g></g></g><g transform="translate(635.8623227880925, 60.799900309919515)" class="mindmap-node section-2"><g><path d="M0 32.8 v-27.799999999999997 q0,-5 5,-5 h122.171875 q5,0 5,5 v32.8 H0 Z" class="node-bkg node-no-border" id="node-13"/><line y2="37.8" x2="132.171875" y1="37.8" x1="0" class="node-line-2"/></g><g transform="translate(66.0859375, 5)" text-anchor="middle" dominant-baseline="middle" alignment-baseline="middle" dy="1em"><g><rect class="background"/><text y="-10.1"><tspan dy="1.1em" y="-0.1em" x="0" class="text-outer-tspan"><tspan font-weight="normal" class="text-inner-tspan" font-style="normal">Single</tspan><tspan font-weight="normal" class="text-inner-tspan" font-style="normal"> Stream</tspan></tspan></text></g></g></g><g transform="translate(790.3440865341905, 108.04253577162319)" class="mindmap-node section-2"><g><path d="M0 32.8 v-27.799999999999997 q0,-5 5,-5 h112.09375 q5,0 5,5 v32.8 H0 Z" class="node-bkg node-no-border" id="node-14"/><line y2="37.8" x2="122.09375" y1="37.8" x1="0" class="node-line-2"/></g><g transform="translate(61.046875, 5)" text-anchor="middle" dominant-baseline="middle" alignment-baseline="middle" dy="1em"><g><rect class="background"/><text y="-10.1"><tspan dy="1.1em" y="-0.1em" x="0" class="text-outer-tspan"><tspan font-weight="normal" class="text-inner-tspan" font-style="normal">Multi</tspan><tspan font-weight="normal" class="text-inner-tspan" font-style="normal"> Stream</tspan></tspan></text></g></g></g><g transform="translate(498.98374261949164, 285.04066140067164)" class="mindmap-node section-3"><g><polygon transform="translate(-1.9500000000000028, 47.8)" points="11.95,0 175.48125000000002,0 187.43125,-23.9 175.48125000000002,-47.8 11.95,-47.8 0,-23.9"/></g><g transform="translate(91.765625, 10)" text-anchor="middle" dominant-baseline="middle" alignment-baseline="middle" dy="1em"><g><rect class="background"/><text y="-10.1"><tspan dy="1.1em" y="-0.1em" x="0" class="text-outer-tspan"><tspan font-weight="normal" class="text-inner-tspan" font-style="normal">Guiding</tspan><tspan font-weight="normal" class="text-inner-tspan" font-style="normal"> Principles</tspan></tspan></text></g></g></g><g transform="translate(744.1514992001097, 318.6592751122665)" class="mindmap-node section-3"><g><path d="M0 32.8 v-27.799999999999997 q0,-5 5,-5 h90.84375 q5,0 5,5 v32.8 H0 Z" class="node-bkg node-no-border" id="node-16"/><line y2="37.8" x2="100.84375" y1="37.8" x1="0" class="node-line-3"/></g><g transform="translate(50.421875, 5)" text-anchor="middle" dominant-baseline="middle" alignment-baseline="middle" dy="1em"><g><rect class="background"/><text y="-10.1"><tspan dy="1.1em" y="-0.1em" x="0" class="text-outer-tspan"><tspan font-weight="normal" class="text-inner-tspan" font-style="normal">Net</tspan><tspan font-weight="normal" class="text-inner-tspan" font-style="normal"> Worth</tspan></tspan></text></g></g></g><g transform="translate(898.2566597271701, 279.2682540081863)" class="mindmap-node section-3"><g><path d="M0 32.8 v-27.799999999999997 q0,-5 5,-5 h62.078125 q5,0 5,5 v32.8 H0 Z" class="node-bkg node-no-border" id="node-17"/><line y2="37.8" x2="72.078125" y1="37.8" x1="0" class="node-line-3"/></g><g transform="translate(36.0390625, 5)" text-anchor="middle" dominant-baseline="middle" alignment-baseline="middle" dy="1em"><g><rect class="background"/><text y="-10.1"><tspan dy="1.1em" y="-0.1em" x="0" class="text-outer-tspan"><tspan font-weight="normal" class="text-inner-tspan" font-style="normal">Assets</tspan></tspan></text></g></g></g><g transform="translate(841.867385968351, 389.04277619306856)" class="mindmap-node section-3"><g><path d="M0 32.8 v-27.799999999999997 q0,-5 5,-5 h85.5625 q5,0 5,5 v32.8 H0 Z" class="node-bkg node-no-border" id="node-18"/><line y2="37.8" x2="95.5625" y1="37.8" x1="0" class="node-line-3"/></g><g transform="translate(47.78125, 5)" text-anchor="middle" dominant-baseline="middle" alignment-baseline="middle" dy="1em"><g><rect class="background"/><text y="-10.1"><tspan dy="1.1em" y="-0.1em" x="0" class="text-outer-tspan"><tspan font-weight="normal" class="text-inner-tspan" font-style="normal">Liabilities</tspan></tspan></text></g></g></g><g transform="translate(639.7535406063304, 377.08336109294)" class="mindmap-node section-3"><g><path d="M0 32.8 v-27.799999999999997 q0,-5 5,-5 h68.875 q5,0 5,5 v32.8 H0 Z" class="node-bkg node-no-border" id="node-19"/><line y2="37.8" x2="78.875" y1="37.8" x1="0" class="node-line-3"/></g><g transform="translate(39.4375, 5)" text-anchor="middle" dominant-baseline="middle" alignment-baseline="middle" dy="1em"><g><rect class="background"/><text y="-10.1"><tspan dy="1.1em" y="-0.1em" x="0" class="text-outer-tspan"><tspan font-weight="normal" class="text-inner-tspan" font-style="normal">Income</tspan></tspan></text></g></g></g><g transform="translate(699.4346979216517, 457.96824456048205)" class="mindmap-node section-3"><g><path d="M0 32.8 v-27.799999999999997 q0,-5 5,-5 h79.6875 q5,0 5,5 v32.8 H0 Z" class="node-bkg node-no-border" id="node-20"/><line y2="37.8" x2="89.6875" y1="37.8" x1="0" class="node-line-3"/></g><g transform="translate(44.84375, 5)" text-anchor="middle" dominant-baseline="middle" alignment-baseline="middle" dy="1em"><g><rect class="background"/><text y="-10.1"><tspan dy="1.1em" y="-0.1em" x="0" class="text-outer-tspan"><tspan font-weight="normal" class="text-inner-tspan" font-style="normal">Revenue</tspan></tspan></text></g></g></g><g transform="translate(543.2169988409456, 450.28972040556266)" class="mindmap-node section-3"><g><path d="M0 32.8 v-27.799999999999997 q0,-5 5,-5 h86.234375 q5,0 5,5 v32.8 H0 Z" class="node-bkg node-no-border" id="node-21"/><line y2="37.8" x2="96.234375" y1="37.8" x1="0" class="node-line-3"/></g><g transform="translate(48.1171875, 5)" text-anchor="middle" dominant-baseline="middle" alignment-baseline="middle" dy="1em"><g><rect class="background"/><text y="-10.1"><tspan dy="1.1em" y="-0.1em" x="0" class="text-outer-tspan"><tspan font-weight="normal" class="text-inner-tspan" font-style="normal">Expenses</tspan></tspan></text></g></g></g><g transform="translate(147.83161933027657, 180.80636194384908)" class="mindmap-node section-4"><g><polygon transform="translate(-1.9500000000000028, 47.8)" points="11.95,0 125.340625,0 137.290625,-23.9 125.340625,-47.8 11.95,-47.8 0,-23.9"/></g><g transform="translate(66.6953125, 10)" text-anchor="middle" dominant-baseline="middle" alignment-baseline="middle" dy="1em"><g><rect class="background"/><text y="-10.1"><tspan dy="1.1em" y="-0.1em" x="0" class="text-outer-tspan"><tspan font-weight="normal" class="text-inner-tspan" font-style="normal">Dimensions</tspan></tspan></text></g></g></g><g transform="translate(15, 190.2925679278104)" class="mindmap-node section-4"><g><path d="M0 32.8 v-27.799999999999997 q0,-5 5,-5 h63.15625 q5,0 5,5 v32.8 H0 Z" class="node-bkg node-no-border" id="node-23"/><line y2="37.8" x2="73.15625" y1="37.8" x1="0" class="node-line-4"/></g><g transform="translate(36.578125, 5)" text-anchor="middle" dominant-baseline="middle" alignment-baseline="middle" dy="1em"><g><rect class="background"/><text y="-10.1"><tspan dy="1.1em" y="-0.1em" x="0" class="text-outer-tspan"><tspan font-weight="normal" class="text-inner-tspan" font-style="normal">People</tspan></tspan></text></g></g></g><g transform="translate(189.02390235100404, 278.43716789001826)" class="mindmap-node section-4"><g><path d="M0 32.8 v-27.799999999999997 q0,-5 5,-5 h50.15625 q5,0 5,5 v32.8 H0 Z" class="node-bkg node-no-border" id="node-24"/><line y2="37.8" x2="60.15625" y1="37.8" x1="0" class="node-line-4"/></g><g transform="translate(30.078125, 5)" text-anchor="middle" dominant-baseline="middle" alignment-baseline="middle" dy="1em"><g><rect class="background"/><text y="-10.1"><tspan dy="1.1em" y="-0.1em" x="0" class="text-outer-tspan"><tspan font-weight="normal" class="text-inner-tspan" font-style="normal">Time</tspan></tspan></text></g></g></g><g transform="translate(173.99709134963484, 89.3102818543531)" class="mindmap-node section-4"><g><path d="M0 32.8 v-27.799999999999997 q0,-5 5,-5 h66.015625 q5,0 5,5 v32.8 H0 Z" class="node-bkg node-no-border" id="node-25"/><line y2="37.8" x2="76.015625" y1="37.8" x1="0" class="node-line-4"/></g><g transform="translate(38.0078125, 5)" text-anchor="middle" dominant-baseline="middle" alignment-baseline="middle" dy="1em"><g><rect class="background"/><text y="-10.1"><tspan dy="1.1em" y="-0.1em" x="0" class="text-outer-tspan"><tspan font-weight="normal" class="text-inner-tspan" font-style="normal">Energy</tspan></tspan></text></g></g></g><g transform="translate(32.12686255483243, 113.5541026606644)" class="mindmap-node section-4"><g><path d="M0 32.8 v-27.799999999999997 q0,-5 5,-5 h97.953125 q5,0 5,5 v32.8 H0 Z" class="node-bkg node-no-border" id="node-26"/><line y2="37.8" x2="107.953125" y1="37.8" x1="0" class="node-line-4"/></g><g transform="translate(53.9765625, 5)" text-anchor="middle" dominant-baseline="middle" alignment-baseline="middle" dy="1em"><g><rect class="background"/><text y="-10.1"><tspan dy="1.1em" y="-0.1em" x="0" class="text-outer-tspan"><tspan font-weight="normal" class="text-inner-tspan" font-style="normal">Knowledge</tspan></tspan></text></g></g></g><g transform="translate(60.89587822114572, 259.23349997059574)" class="mindmap-node section-4"><g><path d="M0 32.8 v-27.799999999999997 q0,-5 5,-5 h75 q5,0 5,5 v32.8 H0 Z" class="node-bkg node-no-border" id="node-27"/><line y2="37.8" x2="85" y1="37.8" x1="0" class="node-line-4"/></g><g transform="translate(42.5, 5)" text-anchor="middle" dominant-baseline="middle" alignment-baseline="middle" dy="1em"><g><rect class="background"/><text y="-10.1"><tspan dy="1.1em" y="-0.1em" x="0" class="text-outer-tspan"><tspan font-weight="normal" class="text-inner-tspan" font-style="normal">Material</tspan></tspan></text></g></g></g></g></svg>